<?xml version="1.0" encoding="UTF-8"?>
<svg id="Crow" xmlns="http://www.w3.org/2000/svg" fill="white" viewBox="0 0 1800 800">
  <defs>
    <style>
      .cls-1 {
        stroke-width: 0px;
      }
    </style>
  </defs>
  <g id="Crow-2" data-name="Crow">
    <path class="cls-1" d="M1767.38,334.08c5.65-25.71,2.64-50.01-.28-73.51-2.49-20.07-4.84-39.02-1.29-56.62,8.42-41.72-17.69-87.51-41.38-122.75-26.43-39.31-55.02-44.88-92.54-48.47-2.03-.19-4.1-.29-6.16-.29-25.17,0-46.2,14.37-57.5,22.09-2.93,2-5.96,4.07-6.85,4.26-1.41.29-4.7.33-8.86.39-11.18.15-29.89.41-52.17,5.27-21.71,4.75-39.11,16.02-38.78,25.14.12,3.45,2.6,7.9,13.71,9.49,23.27,3.32,43.85,9.75,60.38,14.91,3.27,1.02,6.33,1.98,9.18,2.83,17.89,5.38,34.41,12.74,40.07,43.25,3.94,21.22-31.83,45.56-63.38,67.04-13.09,8.91-25.45,17.32-35.4,25.57-34.72,28.77-100.92,87.09-122.13,107.58-20.1,19.42-189.15,137.65-234.6,160.26-46.44,23.1-91.69,59.32-103.03,82.45-2.54,5.19-3.09,8.47-1.77,10.65.58.95,1.77,2.08,4.17,2.08,2.86,0,6.77-1.68,10.15-3.31,0,.42.08.85.26,1.28,1.01,2.48,4.25,2.8,6.97,2.8,7.42,0,22.9-3.11,41.77-8.37-6.78,5.11-20.22,13.91-32.46,21.91-48.36,31.65-69.84,47.02-69.23,54.46.34,4.12,3,9.03,13.81,9.03,6.63,0,14.72-1.74,21.21-3.13,3.37-.72,6.29-1.35,8.31-1.59-.74,1.57-2.62,4.28-3.96,6.2-4.34,6.22-8.82,12.65-5.63,16.72.96,1.22,2.59,1.82,4.98,1.82,7.15,0,22.42-5.41,37.18-10.64,10.54-3.74,20.5-7.26,26.52-8.49,9.19-1.87,53.73-25.4,96.8-48.15,32.13-16.97,68.56-36.21,72.48-36.65,7.63,0,69.29-4.59,108.18-15.92,8.67-2.53,17.93-3.81,27.52-3.81,23.33,0,45.84,7.4,65.14,14.75-.12,4.79-.24,10.66-.36,17.86-.33,19.77-.47,40.24-.43,45.65.06,7.56,14.05,20.89,33.81,38.9,8.13,7.41,18.1,16.51,19.93,19.78-3.31,2.1-8.39,2.16-14.68,2.24-10.99.14-26.05.32-41.67,12.47-9.09,7.07-15.11,17.19-16.47,22.11-.13.45-.51,1.84.33,2.97.47.63,1.19.99,1.97.99.66,0,1.31-.25,2.02-.76l1.6-1.17c5.09-3.72,17.02-12.44,23.43-14.93,8.66-3.36,15.02-4.73,21.96-4.73,9.11,0,19.89,2.39,36.57,6.8,10.22,2.7,18.94,4.01,26.67,4.01,10.05,0,17.35-2.17,25.08-4.47,8.99-2.67,18.28-5.44,33.48-5.44,2.82,0,5.8.1,8.85.29,16.65,1.06,31.56,9.9,38.73,14.15,3.09,1.83,4.02,2.38,5.03,2.38l1.54-.06.58-1.31c.76-1.71-.19-2.8-4.75-8.03-7.65-8.79-14.81-14.16-21.73-17.64,4.23-.84,8.14-1.99,12.15-3.18,8.99-2.67,18.28-5.44,33.47-5.44,2.82,0,5.8.1,8.85.29,16.65,1.06,31.56,9.9,38.73,14.15,3.09,1.83,4.02,2.38,5.03,2.38l1.54-.06.58-1.31c.76-1.71-.19-2.8-4.75-8.03-16.2-18.61-30.23-22.03-44.36-24.14-5.55-.82-9.75-2.73-10.2-4.62-.38-1.55,1.68-4.18,5.51-7.02,6.79-5.05,13.63-7.61,20.31-7.61,11.84,0,19.21,7.93,20.01,10.94.36,1.37,1.42,1.85,2.22,1.85s1.89-.51,2.24-1.93c.66-2.65-.13-14.29-9.76-19.55-4.81-2.63-12.26-4.08-20.97-4.08-20.58,0-42.97,7.38-61.42,20-3.68-.76-7.88-1.17-12.45-1.17-1.27,0-2.55.04-3.83.1-15.76-12.85-43.49-42.75-45.08-52.92-1.05-6.71-1.66-27.89-1.66-48.38v-.23c13.06-6.62,26.31-14.43,41.69-23.65,76.95-46.16,138.84-191.53,149.27-238.99ZM1532.05,619.02c-.17,14.05-.24,26.25-.21,30.25.07,7.55,14.05,20.89,33.8,38.9,7.68,7,17,15.5,19.55,19.18-1.73.75-3.44,1.54-5.14,2.37-2.63.37-5.7.42-9.15.46-7.12.09-15.94.22-25.51,3.58-16-14.1-39.42-40.22-40.9-49.59-.8-5.08-1.09-18.48-1.25-33.59,6.35-2.22,15.82-5.76,28.81-11.55Z"/>
  </g>
  <g>
    <path class="cls-1" d="M212.44,541.89c-24,0-47.09-4-69.25-12-22.17-8-41.75-19.33-58.75-34-17-14.66-30.42-32.33-40.25-53-9.84-20.66-14.75-43.66-14.75-69,0-23.66,5-45.91,15-66.75,10-20.83,23.91-39,41.75-54.5,17.83-15.5,38.58-27.66,62.25-36.5,23.66-8.83,49.33-13.25,77-13.25,12.33,0,23.33.59,33,1.75,9.66,1.17,19,2.75,28,4.75s18.66,4.67,29,8c4.33,1.34,7.58,3.17,9.75,5.5,2.16,2.34,3.41,5.84,3.75,10.5,1,8.67,1.91,17.67,2.75,27,.83,9.34,1.41,19.67,1.75,31,0,3-1.25,5.17-3.75,6.5-2.5,1.34-5.25,1.59-8.25.75-3-.83-5-3.08-6-6.75-3-11-6.5-20.83-10.5-29.5-4-8.66-9.84-15.83-17.5-21.5-7.67-6-17.42-10.66-29.25-14-11.84-3.33-25.09-5-39.75-5-18.67,0-35.84,3.84-51.5,11.5-15.67,7.67-29,18.09-40,31.25-11,13.17-19.59,28.09-25.75,44.75-6.17,16.67-9.25,34-9.25,52,0,21,2.91,41.17,8.75,60.5,5.83,19.34,14.33,36.5,25.5,51.5,11.16,15,24.75,26.92,40.75,35.75,16,8.84,34,13.25,54,13.25,24,0,43.83-5.41,59.5-16.25,15.66-10.83,28.83-26.41,39.5-46.75,2.33-4.66,5.83-7,10.5-7s7,2.67,7,8c0,3.34-.59,7.92-1.75,13.75-1.17,5.84-2.75,12.17-4.75,19-2,6.84-4,13.09-6,18.75-2,4.34-3.84,7.34-5.5,9-1.67,1.67-4.84,3.34-9.5,5-12.67,5.34-27.59,9.33-44.75,12-17.17,2.66-34.75,4-52.75,4Z"/>
    <path class="cls-1" d="M684.43,544.89c-12,0-22.75-1.25-32.25-3.75s-18-6.25-25.5-11.25-14.25-11.16-20.25-18.5c-7.67-10-15.09-19.66-22.25-29-7.17-9.33-14.59-19.91-22.25-31.75-7.67-11.83-16.67-26.25-27-43.25-4.34-8.33-10.5-14.5-18.5-18.5-5.67-3-11.42-5.08-17.25-6.25-5.84-1.16-10.59-1.91-14.25-2.25-2.34,0-4.09.92-5.25,2.75-1.17,1.84-1.75,4.25-1.75,7.25v90.5c0,10.67,2.66,19.42,8,26.25,5.33,6.84,14.5,11.42,27.5,13.75,4.66,1,8.25,2.17,10.75,3.5,2.5,1.34,3.75,3.34,3.75,6,0,2-1.17,3.5-3.5,4.5-2.34,1-5.5,1.5-9.5,1.5-8.34,0-15.75-.25-22.25-.75s-12.67-1-18.5-1.5c-5.84-.5-11.92-.75-18.25-.75-8,0-15.59.25-22.75.75-7.17.5-14.34,1-21.5,1.5-7.17.5-15.09.75-23.75.75-3.67,0-6.75-.42-9.25-1.25-2.5-.83-3.75-2.41-3.75-4.75,0-4.33,4.83-7.5,14.5-9.5,12.66-2.33,21.75-6,27.25-11s8.25-13.33,8.25-25v-217c0-11.33-.67-19.91-2-25.75-1.34-5.83-4.09-10-8.25-12.5-4.17-2.5-10.75-4.41-19.75-5.75-5.34-.66-9.17-1.91-11.5-3.75-2.34-1.83-3.5-3.91-3.5-6.25,0-2,1.25-3.58,3.75-4.75,2.5-1.16,5.58-1.75,9.25-1.75,9.66,0,17.16.17,22.5.5,5.33.34,10.41.59,15.25.75,4.83.17,10.91.25,18.25.25,6.66,0,12.66-.25,18-.75,5.33-.5,11.33-1,18-1.5,6.66-.5,15.16-.75,25.5-.75,37.33,0,65.91,6.75,85.75,20.25,19.83,13.5,29.75,33.92,29.75,61.25,0,15-3.09,27.84-9.25,38.5-6.17,10.67-13.92,19.5-23.25,26.5-9.34,7-18.67,12.5-28,16.5-1.34.34-1.92,1.09-1.75,2.25.16,1.17.58,2.59,1.25,4.25,10.33,15.34,20.25,29.92,29.75,43.75,9.5,13.84,19.66,27.17,30.5,40,10.83,12.84,23.25,25.75,37.25,38.75,9.33,8.67,19.08,13.84,29.25,15.5,10.16,1.67,21.08,2.5,32.75,2.5,5,0,7.5,2.34,7.5,7,0,5.67-2.59,10.09-7.75,13.25-5.17,3.16-11.42,5.41-18.75,6.75-7.34,1.33-14.34,2-21,2ZM501.93,367.39c14.33,0,26.58-3.25,36.75-9.75,10.16-6.5,18-15.16,23.5-26,5.5-10.83,8.25-22.58,8.25-35.25,0-14.33-1.84-27-5.5-38-3.67-11-10.34-19.58-20-25.75-9.67-6.16-23.5-9.25-41.5-9.25-9.34,0-15.67,3.25-19,9.75-3.34,6.5-5.17,18.75-5.5,36.75-.34,8-.59,18.67-.75,32-.17,13.34-.25,29.17-.25,47.5,0,8,2.16,13,6.5,15,4.33,2,10.16,3,17.5,3Z"/>
    <path class="cls-1" d="M912.43,541.39c-22.34,0-43.59-3.92-63.75-11.75-20.17-7.83-38.09-19-53.75-33.5-15.67-14.5-28.09-31.83-37.25-52-9.17-20.16-13.75-42.58-13.75-67.25,0-22.66,3.75-44.41,11.25-65.25,7.5-20.83,18.5-39.41,33-55.75,14.5-16.33,32.58-29.33,54.25-39,21.66-9.66,46.5-14.5,74.5-14.5,22.66,0,44.08,3.92,64.25,11.75,20.16,7.84,38.08,19,53.75,33.5,15.66,14.5,28.08,31.84,37.25,52,9.16,20.17,13.75,42.59,13.75,67.25,0,22.34-3.75,44-11.25,65s-18.5,39.67-33,56c-14.5,16.34-32.59,29.34-54.25,39-21.67,9.66-46.67,14.5-75,14.5ZM920.43,520.39c23.33,0,42.75-5.41,58.25-16.25,15.5-10.83,27.16-25.91,35-45.25,7.83-19.33,11.75-41.66,11.75-67,0-22.33-2.42-43.5-7.25-63.5-4.84-20-12.09-37.91-21.75-53.75-9.67-15.83-21.84-28.16-36.5-37-14.67-8.83-31.84-13.25-51.5-13.25-22.67,0-41.75,5.34-57.25,16-15.5,10.67-27.17,25.5-35,44.5-7.84,19-11.75,41.17-11.75,66.5,0,22.67,2.33,44,7,64,4.66,20,11.83,37.92,21.5,53.75,9.66,15.84,21.75,28.34,36.25,37.5,14.5,9.17,31.58,13.75,51.25,13.75Z"/>
    <path class="cls-1" d="M1259.93,542.39c-1.34,0-2.67-1.42-4-4.25-1.34-2.84-2.67-5.91-4-9.25l-114.5-271.5c-3.67-8.33-8.17-15.25-13.5-20.75-5.34-5.5-12.5-9.41-21.5-11.75-4.67-1.66-8.5-3.25-11.5-4.75s-4.5-3.58-4.5-6.25c0-2.33,1.41-3.91,4.25-4.75,2.83-.83,6.08-1.25,9.75-1.25,8.33,0,16.91.25,25.75.75,8.83.5,17.58.75,26.25.75,9.66,0,19-.25,28-.75s17-.75,24-.75c4.33,0,7.83.5,10.5,1.5,2.66,1,4,2.5,4,4.5,0,2.67-1.34,4.67-4,6-2.67,1.34-6.67,2.84-12,4.5-4.67,1-7.59,3-8.75,6-1.17,3-1.75,6.34-1.75,10,0,4.34.5,8.5,1.5,12.5s1.66,6.17,2,6.5c7.33,18,14.16,34.92,20.5,50.75,6.33,15.84,12.66,31.17,19,46,6.33,14.84,12.83,30,19.5,45.5,6.66,15.5,13.83,32.09,21.5,49.75,1.66,3.67,3.08,5.5,4.25,5.5s2.41-1.66,3.75-5l35-80.5c1-2.33,1.75-4.41,2.25-6.25.5-1.83.75-3.41.75-4.75,0-1.66-.34-3.5-1-5.5-.67-2-1.5-4.33-2.5-7l-36.5-85c-4-9.66-10.25-17.83-18.75-24.5-8.5-6.66-17.25-11.16-26.25-13.5-4.67-1.66-8.34-3.25-11-4.75-2.67-1.5-4-3.58-4-6.25,0-2.33,1.25-3.91,3.75-4.75,2.5-.83,5.58-1.25,9.25-1.25,6,0,12.08.17,18.25.5,6.16.34,12.41.59,18.75.75,6.33.17,12.5.25,18.5.25,8.33,0,16.41-.25,24.25-.75,7.83-.5,15.08-.75,21.75-.75,4.66,0,8.41.5,11.25,1.5,2.83,1,4.25,2.5,4.25,4.5,0,2.67-1.42,4.75-4.25,6.25-2.84,1.5-5.84,3.09-9,4.75-3.17,1.67-5.42,4-6.75,7-2,1-3.09,2.34-3.25,4-.17,1.67.08,3.34.75,5,1,2,2.41,5.67,4.25,11,1.83,5.34,4,11.09,6.5,17.25,2.5,6.17,4.83,12.09,7,17.75,2.16,5.67,3.91,9.84,5.25,12.5,2,4.34,3.58,6.34,4.75,6,1.16-.33,2.58-2.33,4.25-6,2.33-5.66,5-12.25,8-19.75s5.66-14.83,8-22c2.33-7.16,4-12.08,5-14.75.66-1.66,1-3.66,1-6,0-4.33-1.67-7.5-5-9.5-3.34-2-6.75-3.91-10.25-5.75-3.5-1.83-5.25-4.25-5.25-7.25,0-2,1.08-3.5,3.25-4.5,2.16-1,5.58-1.5,10.25-1.5,7.66,0,12.91.17,15.75.5,2.83.34,6.58.5,11.25.5,5.33,0,10.16-.33,14.5-1,4.33-.66,10.16-1,17.5-1,4,0,7.41.5,10.25,1.5,2.83,1,4.25,2.67,4.25,5,0,2.67-1.34,4.67-4,6-2.67,1.34-6.5,2.67-11.5,4-10.34,2.34-17.59,5.59-21.75,9.75s-8.42,9.75-12.75,16.75c-2,4.34-4.75,10.17-8.25,17.5-3.5,7.34-7.09,15.17-10.75,23.5-3.67,8.34-7,16.17-10,23.5-1.34,3-2.17,6.59-2.5,10.75-.34,4.17,0,7.59,1,10.25l46.5,117c1,2.34,2,3.09,3,2.25,1-.83,2-2.25,3-4.25,9.66-24.33,20.08-53,31.25-86,11.16-33,22.25-66.5,33.25-100.5,1.66-5,2.75-9.08,3.25-12.25.5-3.16.75-5.91.75-8.25-.34-4.66-1.59-8.75-3.75-12.25-2.17-3.5-5.92-5.75-11.25-6.75-3.34-1-6.84-2.33-10.5-4-3.67-1.66-5.5-3.83-5.5-6.5,0-2,1.41-3.5,4.25-4.5,2.83-1,6.25-1.5,10.25-1.5,8,0,14.5.17,19.5.5,5,.34,10.33.5,16,.5,7.33-.33,14.5-.75,21.5-1.25s14.16-.75,21.5-.75c4.33,0,8,.42,11,1.25,3,.84,4.5,2.59,4.5,5.25,0,2.34-1.5,4.25-4.5,5.75s-6.84,2.92-11.5,4.25c-7.67,1.67-14.17,4.75-19.5,9.25-5.34,4.5-9.5,9.59-12.5,15.25-3,5.67-5.67,11-8,16l-98,265.5c-.67,2-1.84,4.34-3.5,7-1.67,2.66-3.5,4-5.5,4-1.67,0-3.42-.92-5.25-2.75s-3.25-4.08-4.25-6.75c-7-16-13.5-31.08-19.5-45.25-6-14.16-12.09-29.08-18.25-44.75-6.17-15.66-13.59-33.33-22.25-53-1-2.33-1.92-3.33-2.75-3-.84.34-1.92,2-3.25,5-7.34,17-14.17,32.59-20.5,46.75-6.34,14.17-12.59,28.59-18.75,43.25-6.17,14.67-12.75,30.67-19.75,48-1.34,3.34-2.92,6.5-4.75,9.5-1.84,3-3.92,4.5-6.25,4.5Z"/>
  </g>
  <circle id="Circle" class="cls-1" cx="909.78" cy="368.61" r="22.76"/>
</svg>
