<?xml version="1.0" encoding="utf-8"?>
<!-- Generator: Adobe Illustrator 27.8.1, SVG Export Plug-In . SVG Version: 6.00 Build 0)  -->
<svg version="1.1" id="Crow" xmlns="http://www.w3.org/2000/svg" xmlns:xlink="http://www.w3.org/1999/xlink" x="0px" y="0px"
	 viewBox="0 0 820 820" style="enable-background:new 0 0 820 820;" xml:space="preserve">
<style type="text/css">
	.st0{fill:#FFFFFF;}
</style>
<g>
	<path class="st0" d="M806.8,344.1c5.8-25.7,2.7-50-0.3-73.5c-2.5-20.1-4.9-39-1.3-56.6c8.6-41.7-18-87.5-42.2-122.7
		c-27-39.3-56.1-44.9-94.4-48.5c-2.1-0.2-4.2-0.3-6.3-0.3c-25.7,0-47.1,14.4-58.7,22.1c-3,2-6.1,4.1-7,4.3c-1.4,0.3-4.8,0.3-9,0.4
		c-11.4,0.2-30.5,0.4-53.2,5.3c-22.1,4.7-39.9,16-39.6,25.1c0.1,3.5,2.7,7.9,14,9.5c23.7,3.3,44.7,9.7,61.6,14.9
		c3.3,1,6.5,2,9.4,2.8c18.2,5.4,35.1,12.7,40.9,43.3c4,21.2-32.5,45.6-64.6,67c-13.3,8.9-26,17.3-36.1,25.6
		c-35.4,28.8-102.9,87.1-124.6,107.6c-20.5,19.4-192.9,137.6-239.3,160.3C108.7,553.6,62.5,589.8,51,613c-2.6,5.2-3.1,8.5-1.8,10.6
		c0.6,1,1.8,2.1,4.3,2.1c2.9,0,6.9-1.7,10.3-3.3c0,0.4,0.1,0.8,0.3,1.3c1,2.5,4.3,2.8,7.1,2.8c7.6,0,23.4-3.1,42.6-8.4
		c-6.9,5.1-20.6,13.9-33.1,21.9C31.3,671.7,9.4,687,10,694.5c0.3,4.1,3.1,9,14.1,9c6.8,0,15-1.7,21.6-3.1c3.4-0.7,6.4-1.4,8.5-1.6
		c-0.8,1.6-2.7,4.3-4,6.2c-4.4,6.2-9,12.7-5.7,16.7c1,1.2,2.6,1.8,5.1,1.8c7.3,0,22.9-5.4,37.9-10.6c10.8-3.7,20.9-7.3,27-8.5
		c9.4-1.9,54.8-25.4,98.7-48.2c32.8-17,69.9-36.2,73.9-36.7c7.8,0,70.7-4.6,110.3-15.9c8.8-2.5,18.3-3.8,28.1-3.8
		c23.8,0,46.8,7.4,66.4,14.7c-0.1,4.8-0.2,10.7-0.4,17.9c-0.3,19.8-0.5,40.2-0.4,45.6c0.1,7.6,14.3,20.9,34.5,38.9
		c8.3,7.4,18.5,16.5,20.3,19.8c-3.4,2.1-8.6,2.2-15,2.2c-11.2,0.1-26.6,0.3-42.5,12.5c-9.3,7.1-15.4,17.2-16.8,22.1
		c-0.1,0.5-0.5,1.8,0.3,3c0.5,0.6,1.2,1,2,1c0.7,0,1.3-0.2,2.1-0.8l1.6-1.2c5.2-3.7,17.4-12.4,23.9-14.9c8.8-3.4,15.3-4.7,22.4-4.7
		c9.3,0,20.3,2.4,37.3,6.8c10.4,2.7,19.3,4,27.2,4c10.3,0,17.7-2.2,25.6-4.5c9.2-2.7,18.6-5.4,34.1-5.4c2.9,0,5.9,0.1,9,0.3
		c17,1.1,32.2,9.9,39.5,14.2c3.1,1.8,4.1,2.4,5.1,2.4l1.6-0.1l0.6-1.3c0.8-1.7-0.2-2.8-4.8-8c-7.8-8.8-15.1-14.2-22.2-17.6
		c4.3-0.8,8.3-2,12.4-3.2c9.2-2.7,18.6-5.4,34.1-5.4c2.9,0,5.9,0.1,9,0.3c17,1.1,32.2,9.9,39.5,14.2c3.1,1.8,4.1,2.4,5.1,2.4
		l1.6-0.1l0.6-1.3c0.8-1.7-0.2-2.8-4.8-8c-16.5-18.6-30.8-22-45.2-24.1c-5.7-0.8-9.9-2.7-10.4-4.6c-0.4-1.6,1.7-4.2,5.6-7
		c6.9-5,13.9-7.6,20.7-7.6c12.1,0,19.6,7.9,20.4,10.9c0.4,1.4,1.4,1.9,2.3,1.9c0.8,0,1.9-0.5,2.3-1.9c0.7-2.7-0.1-14.3-10-19.6
		c-4.9-2.6-12.5-4.1-21.4-4.1c-21,0-43.8,7.4-62.6,20c-3.7-0.8-8-1.2-12.7-1.2c-1.3,0-2.6,0-3.9,0.1c-16.1-12.8-44.4-42.8-46-52.9
		c-1.1-6.7-1.7-27.9-1.7-48.4c0-0.1,0-0.2,0-0.2c13.3-6.6,26.8-14.4,42.5-23.7C733,536.9,796.1,391.5,806.8,344.1z M566.7,629
		c-0.2,14-0.2,26.2-0.2,30.2c0.1,7.6,14.3,20.9,34.5,38.9c7.8,7,17.3,15.5,19.9,19.2c-1.8,0.8-3.5,1.5-5.2,2.4
		c-2.7,0.4-5.8,0.4-9.3,0.5c-7.3,0.1-16.3,0.2-26,3.6c-16.3-14.1-40.2-40.2-41.7-49.6c-0.8-5.1-1.1-18.5-1.3-33.6
		C543.8,638.4,553.5,634.8,566.7,629z"/>
</g>
</svg>
