<?xml version="1.0" encoding="utf-8"?>
<!-- Generator: Adobe Illustrator 27.8.1, SVG Export Plug-In . SVG Version: 6.00 Build 0)  -->
<svg version="1.1" xmlns="http://www.w3.org/2000/svg" xmlns:xlink="http://www.w3.org/1999/xlink" x="0px" y="0px"
	 viewBox="0 0 1500 1500" style="enable-background:new 0 0 1500 1500;" xml:space="preserve">
<style type="text/css">
	.st0{fill:#FFFFFF;}
	.st1{fill:none;stroke:#FFFFFF;stroke-width:35;stroke-miterlimit:10;}
</style>
<g id="Layer_1">
	<g id="Crow_00000058588098137284242580000017693750702312808577_">
		<path class="st0" d="M1206.5,736c-6.4-51.8-12.5-100.7-3.3-146.2c21.7-107.7-45.7-225.9-106.8-316.8
			c-68.2-101.5-142-115.8-238.9-125.1c-5.2-0.5-10.6-0.8-15.9-0.8c-65,0-119.3,37.1-148.4,57c-7.6,5.2-15.4,10.5-17.7,11
			c-3.6,0.7-12.1,0.9-22.9,1c-28.9,0.4-77.2,1-134.7,13.6c-56,12.2-100.9,41.4-100.1,64.9c0.3,8.9,6.7,20.4,35.4,24.5
			c60.1,8.6,113.2,25.2,155.9,38.5c8.4,2.6,16.4,5.1,23.7,7.3c46.2,13.9,88.8,32.9,103.4,111.6c10.2,54.8-82.2,117.6-163.6,173
			c-33.8,23-65.7,44.7-91.4,66c-89.6,74.3-260.5,224.8-315.2,277.7c-9.1,8.8-30.2,25.5-59.3,47.4l97.8,153.8l136.3,136.3
			c0,0,97.5,63.1,205.4,97.8c39.9,12.9,236.5,24.1,400.4-0.8c131.4-20,224.2-123.2,225.1-123.6c17.7-201.2,33.9-372.1,35.4-378.5
			C1221.8,859.4,1214,796.7,1206.5,736z"/>
		<path class="st0" d="M130,1103.5"/>
	</g>
</g>
<g id="Layer_2">
	<circle class="st1" cx="750" cy="750" r="705.7"/>
</g>
</svg>
