<?xml version="1.0" encoding="utf-8"?>
<!-- Generator: Adobe Illustrator 27.8.1, SVG Export Plug-In . SVG Version: 6.00 Build 0)  -->
<svg version="1.1" id="Layer_1" xmlns="http://www.w3.org/2000/svg" xmlns:xlink="http://www.w3.org/1999/xlink" x="0px" y="0px"
	 viewBox="0 0 1500 890.3" style="enable-background:new 0 0 1500 890.3;" xml:space="preserve">
<style type="text/css">
	.st0{fill:#FFFFFF;}
</style>
<path class="st0" d="M1492.3,512.3l-98.4,61.2c-86.4-49.8-171.9,17.3-171.9,17.3s-113.1-165.3-304.5-162.3
	c-84.9,1.3-153.9,20.3-209.6,47.9l-46.4-41c42-9.9,238.3-86.3,238.3-86.3c9-3.4,13.6-13.6,10.3-22.9s-13.2-14.1-22.1-10.7
	l-43.5,16.4c34.1-40.1,66-86.5,71.3-94.3c5.5-8.1,3.6-19.2-4.2-24.9c-7.8-5.7-18.6-3.7-24,4.3c-8.3,12.2-22.9,32.7-39.5,54.5
	c3.3-32.8,6.2-77.9,6.3-80c0.6-9.9-6.5-18.3-16.1-19c-9.8-0.7-17.7,6.8-18.3,16.7c0,0.5-3.5,54.3-7,86.4
	c-2.4,21.7-18.6,53.3-26.7,67.3c-5.7,5.3-11.1,9.7-15.8,12.7c-40.6,25.8-148.2,53.9-149.3,54.1c-6.3,1.6-11.1,6.8-12.6,13.3
	s0.7,13.3,5.6,17.7l61,53.9c-10.4,6.3-20.2,13-29.6,19.8l-92.9-79.9c34.7-32,118.4-110.5,145.2-146.7c33.8-45.8,87.8-192.1,90-198.3
	c3.4-9.2-1.1-19.6-10-23.1c-8.9-3.5-18.9,1.1-22.3,10.3c-0.2,0.6-9.1,24.6-21.5,55.6c-0.6-45.1-3.7-98.6-3.8-101.9
	c-0.6-9.8-8.5-17.3-18.2-16.8c-9.5,0.6-16.8,9-16.2,18.9c1.7,30.6,5.5,113.7,3.1,143.9c-7.3-32.5-25.4-74.4-26.2-76.4
	c-3.9-9-14.1-13-22.8-9c-8.7,4.1-12.6,14.6-8.7,23.6c6.2,14.2,22.9,56.3,25.8,79.3c2.9,23,1,61.7,0.2,76
	C632,314.7,516.1,420.2,514.9,421.3c-3.8,3.4-5.9,8.4-5.9,13.7c0.1,5.2,2.4,10.2,6.2,13.5l102.3,88c-46.1,40.1-76.7,83.8-95.7,117.5
	h-436c0,0,8.5,17.6,35.2,34.3c29.7,18.7,70.4,31.4,70.4,31.4H7.7c0,0,41.8,40.9,105.5,61.8c72.3,23.6,167.3,34.7,260.8,39
	l-68.2,61.6h1075.1c0,0,160.6-103.4,82.8-236.7L1492.3,512.3z"/>
</svg>
