<?xml version="1.0" encoding="utf-8"?>
<!-- Generator: Adobe Illustrator 27.8.1, SVG Export Plug-In . SVG Version: 6.00 Build 0)  -->
<svg version="1.1" id="Crow" xmlns="http://www.w3.org/2000/svg" xmlns:xlink="http://www.w3.org/1999/xlink" x="0px" y="0px"
	 viewBox="0 0 1800 800" style="enable-background:new 0 0 1800 800;" xml:space="preserve">
<style type="text/css">
	.st0{fill-rule:evenodd;clip-rule:evenodd;}
</style>
<g id="Crow_00000058588098137284242580000017693750702312808577_">
	<path d="M1767.4,334.1c5.7-25.7,2.6-50-0.3-73.5c-2.5-20.1-4.8-39-1.3-56.6c8.4-41.7-17.7-87.5-41.4-122.7
		c-26.4-39.3-55-44.9-92.5-48.5c-2-0.2-4.1-0.3-6.2-0.3c-25.2,0-46.2,14.4-57.5,22.1c-2.9,2-6,4.1-6.8,4.3c-1.4,0.3-4.7,0.3-8.9,0.4
		c-11.2,0.2-29.9,0.4-52.2,5.3c-21.7,4.7-39.1,16-38.8,25.1c0.1,3.5,2.6,7.9,13.7,9.5c23.3,3.3,43.8,9.7,60.4,14.9
		c3.3,1,6.3,2,9.2,2.8c17.9,5.4,34.4,12.7,40.1,43.3c3.9,21.2-31.8,45.6-63.4,67c-13.1,8.9-25.4,17.3-35.4,25.6
		c-34.7,28.8-100.9,87.1-122.1,107.6c-20.1,19.4-189.2,137.6-234.6,160.3c-46.4,23.1-91.7,59.3-103,82.5c-2.5,5.2-3.1,8.5-1.8,10.6
		c0.6,1,1.8,2.1,4.2,2.1c2.9,0,6.8-1.7,10.1-3.3c0,0.4,0.1,0.8,0.3,1.3c1,2.5,4.3,2.8,7,2.8c7.4,0,22.9-3.1,41.8-8.4
		c-6.8,5.1-20.2,13.9-32.5,21.9c-48.4,31.7-69.8,47-69.2,54.5c0.3,4.1,3,9,13.8,9c6.6,0,14.7-1.7,21.2-3.1c3.4-0.7,6.3-1.4,8.3-1.6
		c-0.7,1.6-2.6,4.3-4,6.2c-4.3,6.2-8.8,12.7-5.6,16.7c1,1.2,2.6,1.8,5,1.8c7.1,0,22.4-5.4,37.2-10.6c10.5-3.7,20.5-7.3,26.5-8.5
		c9.2-1.9,53.7-25.4,96.8-48.2c32.1-17,68.6-36.2,72.5-36.7c7.6,0,69.3-4.6,108.2-15.9c8.7-2.5,17.9-3.8,27.5-3.8
		c23.3,0,45.8,7.4,65.1,14.7c-0.1,4.8-0.2,10.7-0.4,17.9c-0.3,19.8-0.5,40.2-0.4,45.6c0.1,7.6,14.1,20.9,33.8,38.9
		c8.1,7.4,18.1,16.5,19.9,19.8c-3.3,2.1-8.4,2.2-14.7,2.2c-11,0.1-26,0.3-41.7,12.5c-9.1,7.1-15.1,17.2-16.5,22.1
		c-0.1,0.5-0.5,1.8,0.3,3c0.5,0.6,1.2,1,2,1c0.7,0,1.3-0.2,2-0.8l1.6-1.2c5.1-3.7,17-12.4,23.4-14.9c8.7-3.4,15-4.7,22-4.7
		c9.1,0,19.9,2.4,36.6,6.8c10.2,2.7,18.9,4,26.7,4c10.1,0,17.4-2.2,25.1-4.5c9-2.7,18.3-5.4,33.5-5.4c2.8,0,5.8,0.1,8.9,0.3
		c16.6,1.1,31.6,9.9,38.7,14.2c3.1,1.8,4,2.4,5,2.4l1.5-0.1l0.6-1.3c0.8-1.7-0.2-2.8-4.7-8c-7.7-8.8-14.8-14.2-21.7-17.6
		c4.2-0.8,8.1-2,12.2-3.2c9-2.7,18.3-5.4,33.5-5.4c2.8,0,5.8,0.1,8.9,0.3c16.6,1.1,31.6,9.9,38.7,14.2c3.1,1.8,4,2.4,5,2.4l1.5-0.1
		l0.6-1.3c0.8-1.7-0.2-2.8-4.7-8c-16.2-18.6-30.2-22-44.4-24.1c-5.5-0.8-9.7-2.7-10.2-4.6c-0.4-1.6,1.7-4.2,5.5-7
		c6.8-5,13.6-7.6,20.3-7.6c11.8,0,19.2,7.9,20,10.9c0.4,1.4,1.4,1.9,2.2,1.9c0.8,0,1.9-0.5,2.2-1.9c0.7-2.7-0.1-14.3-9.8-19.6
		c-4.8-2.6-12.3-4.1-21-4.1c-20.6,0-43,7.4-61.4,20c-3.7-0.8-7.9-1.2-12.5-1.2c-1.3,0-2.5,0-3.8,0.1c-15.8-12.8-43.5-42.8-45.1-52.9
		c-1.1-6.7-1.7-27.9-1.7-48.4c0-0.1,0-0.2,0-0.2c13.1-6.6,26.3-14.4,41.7-23.7C1695.1,526.9,1757,381.5,1767.4,334.1z M1532.1,619
		c-0.2,14-0.2,26.2-0.2,30.2c0.1,7.6,14.1,20.9,33.8,38.9c7.7,7,17,15.5,19.6,19.2c-1.7,0.8-3.4,1.5-5.1,2.4
		c-2.6,0.4-5.7,0.4-9.2,0.5c-7.1,0.1-15.9,0.2-25.5,3.6c-16-14.1-39.4-40.2-40.9-49.6c-0.8-5.1-1.1-18.5-1.3-33.6
		C1509.6,628.4,1519.1,624.8,1532.1,619z"/>
</g>
<g>
	<path d="M212.4,541.9c-24,0-47.1-4-69.2-12c-22.2-8-41.8-19.3-58.8-34c-17-14.7-30.4-32.3-40.2-53c-9.8-20.7-14.8-43.7-14.8-69
		c0-23.7,5-45.9,15-66.8c10-20.8,23.9-39,41.8-54.5c17.8-15.5,38.6-27.7,62.3-36.5c23.7-8.8,49.3-13.2,77-13.2
		c12.3,0,23.3,0.6,33,1.8c9.7,1.2,19,2.8,28,4.8s18.7,4.7,29,8c4.3,1.3,7.6,3.2,9.8,5.5c2.2,2.3,3.4,5.8,3.8,10.5
		c1,8.7,1.9,17.7,2.8,27c0.8,9.3,1.4,19.7,1.8,31c0,3-1.2,5.2-3.8,6.5c-2.5,1.3-5.2,1.6-8.2,0.8c-3-0.8-5-3.1-6-6.8
		c-3-11-6.5-20.8-10.5-29.5c-4-8.7-9.8-15.8-17.5-21.5c-7.7-6-17.4-10.7-29.2-14c-11.8-3.3-25.1-5-39.8-5
		c-18.7,0-35.8,3.8-51.5,11.5c-15.7,7.7-29,18.1-40,31.2c-11,13.2-19.6,28.1-25.8,44.8c-6.2,16.7-9.2,34-9.2,52
		c0,21,2.9,41.2,8.8,60.5c5.8,19.3,14.3,36.5,25.5,51.5c11.2,15,24.8,26.9,40.8,35.8c16,8.8,34,13.2,54,13.2
		c24,0,43.8-5.4,59.5-16.2c15.7-10.8,28.8-26.4,39.5-46.8c2.3-4.7,5.8-7,10.5-7c4.7,0,7,2.7,7,8c0,3.3-0.6,7.9-1.8,13.8
		c-1.2,5.8-2.8,12.2-4.8,19c-2,6.8-4,13.1-6,18.8c-2,4.3-3.8,7.3-5.5,9c-1.7,1.7-4.8,3.3-9.5,5c-12.7,5.3-27.6,9.3-44.8,12
		C248,540.6,230.4,541.9,212.4,541.9z"/>
	<path d="M684.4,544.9c-12,0-22.8-1.2-32.2-3.8s-18-6.2-25.5-11.2s-14.2-11.2-20.2-18.5c-7.7-10-15.1-19.7-22.2-29
		c-7.2-9.3-14.6-19.9-22.2-31.8c-7.7-11.8-16.7-26.2-27-43.2c-4.3-8.3-10.5-14.5-18.5-18.5c-5.7-3-11.4-5.1-17.2-6.2
		c-5.8-1.2-10.6-1.9-14.2-2.2c-2.3,0-4.1,0.9-5.2,2.8c-1.2,1.8-1.8,4.2-1.8,7.2v90.5c0,10.7,2.7,19.4,8,26.2
		c5.3,6.8,14.5,11.4,27.5,13.8c4.7,1,8.2,2.2,10.8,3.5c2.5,1.3,3.8,3.3,3.8,6c0,2-1.2,3.5-3.5,4.5c-2.3,1-5.5,1.5-9.5,1.5
		c-8.3,0-15.8-0.2-22.2-0.8s-12.7-1-18.5-1.5c-5.8-0.5-11.9-0.8-18.2-0.8c-8,0-15.6,0.2-22.8,0.8c-7.2,0.5-14.3,1-21.5,1.5
		c-7.2,0.5-15.1,0.8-23.8,0.8c-3.7,0-6.8-0.4-9.2-1.2s-3.8-2.4-3.8-4.8c0-4.3,4.8-7.5,14.5-9.5c12.7-2.3,21.8-6,27.2-11
		s8.2-13.3,8.2-25v-217c0-11.3-0.7-19.9-2-25.8c-1.3-5.8-4.1-10-8.2-12.5c-4.2-2.5-10.8-4.4-19.8-5.8c-5.3-0.7-9.2-1.9-11.5-3.8
		c-2.3-1.8-3.5-3.9-3.5-6.2c0-2,1.2-3.6,3.8-4.8c2.5-1.2,5.6-1.8,9.2-1.8c9.7,0,17.2,0.2,22.5,0.5c5.3,0.3,10.4,0.6,15.2,0.8
		c4.8,0.2,10.9,0.2,18.2,0.2c6.7,0,12.7-0.2,18-0.8c5.3-0.5,11.3-1,18-1.5c6.7-0.5,15.2-0.8,25.5-0.8c37.3,0,65.9,6.8,85.8,20.2
		c19.8,13.5,29.8,33.9,29.8,61.2c0,15-3.1,27.8-9.2,38.5c-6.2,10.7-13.9,19.5-23.2,26.5c-9.3,7-18.7,12.5-28,16.5
		c-1.3,0.3-1.9,1.1-1.8,2.2c0.2,1.2,0.6,2.6,1.2,4.2c10.3,15.3,20.2,29.9,29.8,43.7c9.5,13.8,19.7,27.2,30.5,40
		c10.8,12.8,23.2,25.8,37.2,38.8c9.3,8.7,19.1,13.8,29.2,15.5c10.2,1.7,21.1,2.5,32.8,2.5c5,0,7.5,2.3,7.5,7
		c0,5.7-2.6,10.1-7.8,13.2c-5.2,3.2-11.4,5.4-18.8,6.8C698.1,544.2,691.1,544.9,684.4,544.9z M501.9,367.4c14.3,0,26.6-3.2,36.8-9.8
		c10.2-6.5,18-15.2,23.5-26c5.5-10.8,8.2-22.6,8.2-35.2c0-14.3-1.8-27-5.5-38c-3.7-11-10.3-19.6-20-25.8c-9.7-6.2-23.5-9.2-41.5-9.2
		c-9.3,0-15.7,3.2-19,9.8c-3.3,6.5-5.2,18.8-5.5,36.8c-0.3,8-0.6,18.7-0.8,32c-0.2,13.3-0.2,29.2-0.2,47.5c0,8,2.2,13,6.5,15
		C488.8,366.4,494.6,367.4,501.9,367.4z"/>
	<path d="M912.4,541.4c-22.3,0-43.6-3.9-63.8-11.8c-20.2-7.8-38.1-19-53.8-33.5c-15.7-14.5-28.1-31.8-37.2-52
		c-9.2-20.2-13.8-42.6-13.8-67.2c0-22.7,3.8-44.4,11.2-65.2c7.5-20.8,18.5-39.4,33-55.8c14.5-16.3,32.6-29.3,54.2-39
		c21.7-9.7,46.5-14.5,74.5-14.5c22.7,0,44.1,3.9,64.2,11.8c20.2,7.8,38.1,19,53.7,33.5c15.7,14.5,28.1,31.8,37.2,52
		c9.2,20.2,13.8,42.6,13.8,67.2c0,22.3-3.8,44-11.2,65s-18.5,39.7-33,56c-14.5,16.3-32.6,29.3-54.2,39
		C965.8,536.6,940.8,541.4,912.4,541.4z M920.4,520.4c23.3,0,42.8-5.4,58.2-16.2c15.5-10.8,27.2-25.9,35-45.2
		c7.8-19.3,11.7-41.7,11.7-67c0-22.3-2.4-43.5-7.2-63.5c-4.8-20-12.1-37.9-21.8-53.8c-9.7-15.8-21.8-28.2-36.5-37
		c-14.7-8.8-31.8-13.2-51.5-13.2c-22.7,0-41.8,5.3-57.2,16c-15.5,10.7-27.2,25.5-35,44.5c-7.8,19-11.8,41.2-11.8,66.5
		c0,22.7,2.3,44,7,64c4.7,20,11.8,37.9,21.5,53.8c9.7,15.8,21.8,28.3,36.2,37.5C883.7,515.8,900.8,520.4,920.4,520.4z"/>
	<path d="M1259.9,542.4c-1.3,0-2.7-1.4-4-4.2c-1.3-2.8-2.7-5.9-4-9.2l-114.5-271.5c-3.7-8.3-8.2-15.2-13.5-20.8
		c-5.3-5.5-12.5-9.4-21.5-11.8c-4.7-1.7-8.5-3.2-11.5-4.8s-4.5-3.6-4.5-6.2c0-2.3,1.4-3.9,4.2-4.8c2.8-0.8,6.1-1.2,9.8-1.2
		c8.3,0,16.9,0.2,25.8,0.8c8.8,0.5,17.6,0.8,26.2,0.8c9.7,0,19-0.2,28-0.8s17-0.8,24-0.8c4.3,0,7.8,0.5,10.5,1.5c2.7,1,4,2.5,4,4.5
		c0,2.7-1.3,4.7-4,6c-2.7,1.3-6.7,2.8-12,4.5c-4.7,1-7.6,3-8.8,6c-1.2,3-1.8,6.3-1.8,10c0,4.3,0.5,8.5,1.5,12.5s1.7,6.2,2,6.5
		c7.3,18,14.2,34.9,20.5,50.8c6.3,15.8,12.7,31.2,19,46c6.3,14.8,12.8,30,19.5,45.5c6.7,15.5,13.8,32.1,21.5,49.8
		c1.7,3.7,3.1,5.5,4.2,5.5c1.2,0,2.4-1.7,3.8-5l35-80.5c1-2.3,1.8-4.4,2.2-6.2c0.5-1.8,0.8-3.4,0.8-4.8c0-1.7-0.3-3.5-1-5.5
		c-0.7-2-1.5-4.3-2.5-7l-36.5-85c-4-9.7-10.2-17.8-18.8-24.5c-8.5-6.7-17.2-11.2-26.2-13.5c-4.7-1.7-8.3-3.2-11-4.8
		c-2.7-1.5-4-3.6-4-6.2c0-2.3,1.2-3.9,3.8-4.8c2.5-0.8,5.6-1.2,9.2-1.2c6,0,12.1,0.2,18.2,0.5c6.2,0.3,12.4,0.6,18.8,0.8
		c6.3,0.2,12.5,0.2,18.5,0.2c8.3,0,16.4-0.2,24.2-0.8c7.8-0.5,15.1-0.8,21.8-0.8c4.7,0,8.4,0.5,11.2,1.5c2.8,1,4.2,2.5,4.2,4.5
		c0,2.7-1.4,4.8-4.2,6.2c-2.8,1.5-5.8,3.1-9,4.8c-3.2,1.7-5.4,4-6.8,7c-2,1-3.1,2.3-3.2,4c-0.2,1.7,0.1,3.3,0.8,5
		c1,2,2.4,5.7,4.2,11c1.8,5.3,4,11.1,6.5,17.2c2.5,6.2,4.8,12.1,7,17.8c2.2,5.7,3.9,9.8,5.2,12.5c2,4.3,3.6,6.3,4.8,6
		c1.2-0.3,2.6-2.3,4.2-6c2.3-5.7,5-12.2,8-19.8s5.7-14.8,8-22c2.3-7.2,4-12.1,5-14.8c0.7-1.7,1-3.7,1-6c0-4.3-1.7-7.5-5-9.5
		c-3.3-2-6.8-3.9-10.2-5.8c-3.5-1.8-5.2-4.2-5.2-7.2c0-2,1.1-3.5,3.2-4.5c2.2-1,5.6-1.5,10.2-1.5c7.7,0,12.9,0.2,15.8,0.5
		c2.8,0.3,6.6,0.5,11.2,0.5c5.3,0,10.2-0.3,14.5-1c4.3-0.7,10.2-1,17.5-1c4,0,7.4,0.5,10.2,1.5c2.8,1,4.2,2.7,4.2,5
		c0,2.7-1.3,4.7-4,6c-2.7,1.3-6.5,2.7-11.5,4c-10.3,2.3-17.6,5.6-21.8,9.8c-4.2,4.2-8.4,9.8-12.8,16.8c-2,4.3-4.8,10.2-8.2,17.5
		c-3.5,7.3-7.1,15.2-10.8,23.5c-3.7,8.3-7,16.2-10,23.5c-1.3,3-2.2,6.6-2.5,10.8c-0.3,4.2,0,7.6,1,10.2l46.5,117c1,2.3,2,3.1,3,2.2
		c1-0.8,2-2.2,3-4.2c9.7-24.3,20.1-53,31.2-86c11.2-33,22.2-66.5,33.2-100.5c1.7-5,2.8-9.1,3.2-12.2c0.5-3.2,0.8-5.9,0.8-8.2
		c-0.3-4.7-1.6-8.8-3.8-12.2c-2.2-3.5-5.9-5.8-11.2-6.8c-3.3-1-6.8-2.3-10.5-4c-3.7-1.7-5.5-3.8-5.5-6.5c0-2,1.4-3.5,4.2-4.5
		c2.8-1,6.2-1.5,10.2-1.5c8,0,14.5,0.2,19.5,0.5c5,0.3,10.3,0.5,16,0.5c7.3-0.3,14.5-0.8,21.5-1.2s14.2-0.8,21.5-0.8
		c4.3,0,8,0.4,11,1.2c3,0.8,4.5,2.6,4.5,5.2c0,2.3-1.5,4.2-4.5,5.8s-6.8,2.9-11.5,4.2c-7.7,1.7-14.2,4.8-19.5,9.2
		c-5.3,4.5-9.5,9.6-12.5,15.2c-3,5.7-5.7,11-8,16l-98,265.5c-0.7,2-1.8,4.3-3.5,7c-1.7,2.7-3.5,4-5.5,4c-1.7,0-3.4-0.9-5.2-2.8
		c-1.8-1.8-3.2-4.1-4.2-6.8c-7-16-13.5-31.1-19.5-45.2c-6-14.2-12.1-29.1-18.2-44.8c-6.2-15.7-13.6-33.3-22.2-53
		c-1-2.3-1.9-3.3-2.8-3c-0.8,0.3-1.9,2-3.2,5c-7.3,17-14.2,32.6-20.5,46.7c-6.3,14.2-12.6,28.6-18.8,43.2
		c-6.2,14.7-12.8,30.7-19.8,48c-1.3,3.3-2.9,6.5-4.8,9.5C1264.3,540.9,1262.3,542.4,1259.9,542.4z"/>
</g>
<circle id="Circle" class="st0" cx="909.8" cy="368.6" r="22.8"/>
</svg>
