<?xml version="1.0" encoding="utf-8"?>
<!-- Generator: Adobe Illustrator 27.8.1, SVG Export Plug-In . SVG Version: 6.00 Build 0)  -->
<svg version="1.1" id="Crow" xmlns="http://www.w3.org/2000/svg" xmlns:xlink="http://www.w3.org/1999/xlink" x="0px" y="0px"
	 viewBox="0 0 1029.4 457.5" style="enable-background:new 0 0 1029.4 457.5;" xml:space="preserve">
<style type="text/css">
	.st0{fill:#FFFFFF;}
	.st1{fill-rule:evenodd;clip-rule:evenodd;fill:#FFFFFF;}
</style>
<g id="Crow_00000058588098137284242580000017693750702312808577_">
	<path class="st0" d="M1012.9,190.9c3.2-14.8,1.5-28.7-0.2-42.2c-1.4-11.5-2.8-22.4-0.7-32.5c4.8-24-10.2-50.3-23.8-70.5
		c-15.2-22.6-31.6-25.8-53.1-27.8c-1.2-0.1-2.4-0.2-3.5-0.2c-14.5,0-26.5,8.3-33,12.7c-1.7,1.1-3.4,2.3-3.9,2.4
		c-0.8,0.2-2.7,0.2-5.1,0.2c-6.4,0.1-17.2,0.2-30,3c-12.5,2.7-22.5,9.2-22.3,14.4c0.1,2,1.5,4.5,7.9,5.4c13.4,1.9,25.2,5.6,34.7,8.6
		c1.9,0.6,3.6,1.1,5.3,1.6c10.3,3.1,19.8,7.3,23,24.8c2.3,12.2-18.3,26.2-36.4,38.5c-7.5,5.1-14.6,9.9-20.3,14.7
		c-19.9,16.5-58,50-70.1,61.8c-11.5,11.2-108.6,79.1-134.7,92c-26.7,13.3-52.7,34.1-59.2,47.4c-1.5,3-1.8,4.9-1,6.1
		c0.3,0.5,1,1.2,2.4,1.2c1.6,0,3.9-1,5.8-1.9c0,0.2,0,0.5,0.1,0.7c0.6,1.4,2.4,1.6,4,1.6c4.3,0,13.2-1.8,24-4.8
		c-3.9,2.9-11.6,8-18.6,12.6c-27.8,18.2-40.1,27-39.8,31.3c0.2,2.4,1.7,5.2,7.9,5.2c3.8,0,8.5-1,12.2-1.8c1.9-0.4,3.6-0.8,4.8-0.9
		c-0.4,0.9-1.5,2.5-2.3,3.6c-2.5,3.6-5.1,7.3-3.2,9.6c0.5,0.7,1.5,1,2.9,1c4.1,0,12.9-3.1,21.4-6.1c6.1-2.1,11.8-4.2,15.2-4.9
		c5.3-1.1,30.9-14.6,55.6-27.7c18.5-9.7,39.4-20.8,41.6-21.1c4.4,0,39.8-2.6,62.1-9.1c5-1.5,10.3-2.2,15.8-2.2
		c13.4,0,26.3,4.2,37.4,8.5c-0.1,2.8-0.1,6.1-0.2,10.3c-0.2,11.4-0.3,23.1-0.2,26.2c0,4.3,8.1,12,19.4,22.3
		c4.7,4.3,10.4,9.5,11.4,11.4c-1.9,1.2-4.8,1.2-8.4,1.3c-6.3,0.1-15,0.2-23.9,7.2c-5.2,4.1-8.7,9.9-9.5,12.7
		c-0.1,0.3-0.3,1.1,0.2,1.7c0.3,0.4,0.7,0.6,1.1,0.6c0.4,0,0.8-0.1,1.2-0.4l0.9-0.7c2.9-2.1,9.8-7.1,13.5-8.6
		c5-1.9,8.6-2.7,12.6-2.7c5.2,0,11.4,1.4,21,3.9c5.9,1.6,10.9,2.3,15.3,2.3c5.8,0,10-1.2,14.4-2.6c5.2-1.5,10.5-3.1,19.2-3.1
		c1.6,0,3.3,0.1,5.1,0.2c9.6,0.6,18.1,5.7,22.2,8.1c1.8,1.1,2.3,1.4,2.9,1.4l0.9,0l0.3-0.8c0.4-1-0.1-1.6-2.7-4.6
		c-4.4-5-8.5-8.1-12.5-10.1c2.4-0.5,4.7-1.1,7-1.8c5.2-1.5,10.5-3.1,19.2-3.1c1.6,0,3.3,0.1,5.1,0.2c9.6,0.6,18.1,5.7,22.2,8.1
		c1.8,1.1,2.3,1.4,2.9,1.4l0.9,0l0.3-0.8c0.4-1-0.1-1.6-2.7-4.6c-9.3-10.7-17.4-12.7-25.5-13.9c-3.2-0.5-5.6-1.6-5.9-2.7
		c-0.2-0.9,1-2.4,3.2-4c3.9-2.9,7.8-4.4,11.7-4.4c6.8,0,11,4.6,11.5,6.3c0.2,0.8,0.8,1.1,1.3,1.1c0.5,0,1.1-0.3,1.3-1.1
		c0.4-1.5-0.1-8.2-5.6-11.2c-2.8-1.5-7-2.3-12-2.3c-11.8,0-24.7,4.2-35.3,11.5c-2.1-0.4-4.5-0.7-7.2-0.7c-0.7,0-1.5,0-2.2,0.1
		c-9.1-7.4-25-24.6-25.9-30.4c-0.6-3.9-1-16-1-27.8c0,0,0-0.1,0-0.1c7.5-3.8,15.1-8.3,23.9-13.6
		C971.3,301.6,1006.9,218.2,1012.9,190.9z M877.7,354.5c-0.1,8.1-0.1,15.1-0.1,17.4c0,4.3,8.1,12,19.4,22.3c4.4,4,9.8,8.9,11.2,11
		c-1,0.4-2,0.9-3,1.4c-1.5,0.2-3.3,0.2-5.3,0.3c-4.1,0.1-9.2,0.1-14.7,2.1c-9.2-8.1-22.6-23.1-23.5-28.5c-0.5-2.9-0.6-10.6-0.7-19.3
		C864.8,359.9,870.2,357.9,877.7,354.5z"/>
</g>
<g>
	<path class="st0" d="M119.8,310.2c-13.8,0-27-2.3-39.8-6.9c-12.7-4.6-24-11.1-33.7-19.5c-9.8-8.4-17.5-18.6-23.1-30.4
		c-5.6-11.9-8.5-25.1-8.5-39.6c0-13.6,2.9-26.4,8.6-38.3c5.7-12,13.7-22.4,24-31.3c10.2-8.9,22.2-15.9,35.8-21
		c13.6-5.1,28.3-7.6,44.2-7.6c7.1,0,13.4,0.3,19,1c5.6,0.7,10.9,1.6,16.1,2.7c5.2,1.1,10.7,2.7,16.7,4.6c2.5,0.8,4.4,1.8,5.6,3.2
		c1.2,1.3,2,3.4,2.2,6c0.6,5,1.1,10.1,1.6,15.5c0.5,5.4,0.8,11.3,1,17.8c0,1.7-0.7,3-2.2,3.7c-1.4,0.8-3,0.9-4.7,0.4
		c-1.7-0.5-2.9-1.8-3.4-3.9c-1.7-6.3-3.7-12-6-16.9c-2.3-5-5.6-9.1-10.1-12.3c-4.4-3.4-10-6.1-16.8-8c-6.8-1.9-14.4-2.9-22.8-2.9
		c-10.7,0-20.6,2.2-29.6,6.6c-9,4.4-16.7,10.4-23,17.9c-6.3,7.6-11.2,16.1-14.8,25.7c-3.5,9.6-5.3,19.5-5.3,29.9
		c0,12.1,1.7,23.6,5,34.7c3.3,11.1,8.2,21,14.6,29.6c6.4,8.6,14.2,15.5,23.4,20.5c9.2,5.1,19.5,7.6,31,7.6c13.8,0,25.2-3.1,34.2-9.3
		c9-6.2,16.6-15.2,22.7-26.9c1.3-2.7,3.3-4,6-4c2.7,0,4,1.5,4,4.6c0,1.9-0.3,4.5-1,7.9c-0.7,3.4-1.6,7-2.7,10.9
		c-1.1,3.9-2.3,7.5-3.4,10.8c-1.1,2.5-2.2,4.2-3.2,5.2c-1,1-2.8,1.9-5.5,2.9c-7.3,3.1-15.8,5.4-25.7,6.9
		C140.2,309.5,130.1,310.2,119.8,310.2z"/>
	<path class="st0" d="M390.9,312c-6.9,0-13.1-0.7-18.5-2.2c-5.5-1.4-10.3-3.6-14.6-6.5c-4.3-2.9-8.2-6.4-11.6-10.6
		c-4.4-5.7-8.7-11.3-12.8-16.7c-4.1-5.4-8.4-11.4-12.8-18.2c-4.4-6.8-9.6-15.1-15.5-24.8c-2.5-4.8-6-8.3-10.6-10.6
		c-3.3-1.7-6.6-2.9-9.9-3.6c-3.4-0.7-6.1-1.1-8.2-1.3c-1.3,0-2.3,0.5-3,1.6c-0.7,1.1-1,2.4-1,4.2v52c0,6.1,1.5,11.2,4.6,15.1
		c3.1,3.9,8.3,6.6,15.8,7.9c2.7,0.6,4.7,1.2,6.2,2c1.4,0.8,2.2,1.9,2.2,3.4c0,1.1-0.7,2-2,2.6c-1.3,0.6-3.2,0.9-5.5,0.9
		c-4.8,0-9-0.1-12.8-0.4c-3.7-0.3-7.3-0.6-10.6-0.9c-3.4-0.3-6.8-0.4-10.5-0.4c-4.6,0-9,0.1-13.1,0.4c-4.1,0.3-8.2,0.6-12.3,0.9
		c-4.1,0.3-8.7,0.4-13.6,0.4c-2.1,0-3.9-0.2-5.3-0.7c-1.4-0.5-2.2-1.4-2.2-2.7c0-2.5,2.8-4.3,8.3-5.5c7.3-1.3,12.5-3.4,15.7-6.3
		c3.2-2.9,4.7-7.7,4.7-14.4V152.9c0-6.5-0.4-11.4-1.1-14.8c-0.8-3.3-2.3-5.7-4.7-7.2c-2.4-1.4-6.2-2.5-11.3-3.3
		c-3.1-0.4-5.3-1.1-6.6-2.2c-1.3-1-2-2.2-2-3.6c0-1.1,0.7-2.1,2.2-2.7c1.4-0.7,3.2-1,5.3-1c5.6,0,9.9,0.1,12.9,0.3
		c3.1,0.2,6,0.3,8.8,0.4c2.8,0.1,6.3,0.1,10.5,0.1c3.8,0,7.3-0.1,10.3-0.4c3.1-0.3,6.5-0.6,10.3-0.9c3.8-0.3,8.7-0.4,14.6-0.4
		c21.4,0,37.9,3.9,49.2,11.6c11.4,7.8,17.1,19.5,17.1,35.2c0,8.6-1.8,16-5.3,22.1c-3.5,6.1-8,11.2-13.4,15.2
		c-5.4,4-10.7,7.2-16.1,9.5c-0.8,0.2-1.1,0.6-1,1.3c0.1,0.7,0.3,1.5,0.7,2.4c5.9,8.8,11.6,17.2,17.1,25.1c5.5,7.9,11.3,15.6,17.5,23
		c6.2,7.4,13.4,14.8,21.4,22.3c5.4,5,11,7.9,16.8,8.9c5.8,1,12.1,1.4,18.8,1.4c2.9,0,4.3,1.3,4.3,4c0,3.3-1.5,5.8-4.5,7.6
		c-3,1.8-6.6,3.1-10.8,3.9C398.7,311.6,394.7,312,390.9,312z M286.1,210c8.2,0,15.3-1.9,21.1-5.6c5.8-3.7,10.3-8.7,13.5-14.9
		c3.2-6.2,4.7-13,4.7-20.2c0-8.2-1.1-15.5-3.2-21.8c-2.1-6.3-5.9-11.2-11.5-14.8c-5.6-3.5-13.5-5.3-23.8-5.3c-5.4,0-9,1.9-10.9,5.6
		c-1.9,3.7-3,10.8-3.2,21.1c-0.2,4.6-0.3,10.7-0.4,18.4c-0.1,7.7-0.1,16.8-0.1,27.3c0,4.6,1.2,7.5,3.7,8.6
		C278.5,209.5,281.9,210,286.1,210z"/>
	<path class="st0" d="M521.8,310c-12.8,0-25-2.3-36.6-6.7c-11.6-4.5-21.9-10.9-30.9-19.2c-9-8.3-16.1-18.3-21.4-29.9
		c-5.3-11.6-7.9-24.5-7.9-38.6c0-13,2.2-25.5,6.5-37.5c4.3-12,10.6-22.6,19-32c8.3-9.4,18.7-16.8,31.2-22.4
		c12.4-5.6,26.7-8.3,42.8-8.3c13,0,25.3,2.3,36.9,6.7c11.6,4.5,21.9,10.9,30.9,19.2c9,8.3,16.1,18.3,21.4,29.9
		c5.3,11.6,7.9,24.5,7.9,38.6c0,12.8-2.2,25.3-6.5,37.3c-4.3,12.1-10.6,22.8-19,32.2c-8.3,9.4-18.7,16.8-31.2,22.4
		C552.5,307.2,538.1,310,521.8,310z M526.4,297.9c13.4,0,24.6-3.1,33.5-9.3c8.9-6.2,15.6-14.9,20.1-26c4.5-11.1,6.7-23.9,6.7-38.5
		c0-12.8-1.4-25-4.2-36.5c-2.8-11.5-6.9-21.8-12.5-30.9c-5.6-9.1-12.5-16.2-21-21.3c-8.4-5.1-18.3-7.6-29.6-7.6
		c-13,0-24,3.1-32.9,9.2c-8.9,6.1-15.6,14.6-20.1,25.6c-4.5,10.9-6.7,23.6-6.7,38.2c0,13,1.3,25.3,4,36.8
		c2.7,11.5,6.8,21.8,12.3,30.9c5.6,9.1,12.5,16.3,20.8,21.5C505.3,295.3,515.1,297.9,526.4,297.9z"/>
	<path class="st0" d="M721.4,310.5c-0.8,0-1.5-0.8-2.3-2.4c-0.8-1.6-1.5-3.4-2.3-5.3l-65.8-155.9c-2.1-4.8-4.7-8.8-7.8-11.9
		c-3.1-3.2-7.2-5.4-12.3-6.7c-2.7-1-4.9-1.9-6.6-2.7c-1.7-0.9-2.6-2.1-2.6-3.6c0-1.3,0.8-2.2,2.4-2.7c1.6-0.5,3.5-0.7,5.6-0.7
		c4.8,0,9.7,0.1,14.8,0.4c5.1,0.3,10.1,0.4,15.1,0.4c5.6,0,10.9-0.1,16.1-0.4s9.8-0.4,13.8-0.4c2.5,0,4.5,0.3,6,0.9
		c1.5,0.6,2.3,1.4,2.3,2.6c0,1.5-0.8,2.7-2.3,3.4c-1.5,0.8-3.8,1.6-6.9,2.6c-2.7,0.6-4.4,1.7-5,3.4c-0.7,1.7-1,3.6-1,5.7
		c0,2.5,0.3,4.9,0.9,7.2c0.6,2.3,1,3.5,1.1,3.7c4.2,10.3,8.1,20.1,11.8,29.1c3.6,9.1,7.3,17.9,10.9,26.4c3.6,8.5,7.4,17.2,11.2,26.1
		c3.8,8.9,7.9,18.4,12.3,28.6c1,2.1,1.8,3.2,2.4,3.2c0.7,0,1.4-1,2.2-2.9l20.1-46.2c0.6-1.3,1-2.5,1.3-3.6c0.3-1,0.4-2,0.4-2.7
		c0-1-0.2-2-0.6-3.2c-0.4-1.1-0.9-2.5-1.4-4l-21-48.8c-2.3-5.6-5.9-10.2-10.8-14.1c-4.9-3.8-9.9-6.4-15.1-7.8
		c-2.7-1-4.8-1.9-6.3-2.7c-1.5-0.9-2.3-2.1-2.3-3.6c0-1.3,0.7-2.2,2.2-2.7c1.4-0.5,3.2-0.7,5.3-0.7c3.4,0,6.9,0.1,10.5,0.3
		c3.5,0.2,7.1,0.3,10.8,0.4c3.6,0.1,7.2,0.1,10.6,0.1c4.8,0,9.4-0.1,13.9-0.4c4.5-0.3,8.7-0.4,12.5-0.4c2.7,0,4.8,0.3,6.5,0.9
		c1.6,0.6,2.4,1.4,2.4,2.6c0,1.5-0.8,2.7-2.4,3.6c-1.6,0.9-3.4,1.8-5.2,2.7c-1.8,1-3.1,2.3-3.9,4c-1.1,0.6-1.8,1.3-1.9,2.3
		c-0.1,1,0,1.9,0.4,2.9c0.6,1.1,1.4,3.3,2.4,6.3c1,3.1,2.3,6.4,3.7,9.9c1.4,3.5,2.8,6.9,4,10.2c1.2,3.3,2.2,5.6,3,7.2
		c1.1,2.5,2.1,3.6,2.7,3.4c0.7-0.2,1.5-1.3,2.4-3.4c1.3-3.3,2.9-7,4.6-11.3c1.7-4.3,3.3-8.5,4.6-12.6c1.3-4.1,2.3-6.9,2.9-8.5
		c0.4-1,0.6-2.1,0.6-3.4c0-2.5-1-4.3-2.9-5.5c-1.9-1.1-3.9-2.2-5.9-3.3c-2-1-3-2.4-3-4.2c0-1.1,0.6-2,1.9-2.6
		c1.2-0.6,3.2-0.9,5.9-0.9c4.4,0,7.4,0.1,9,0.3c1.6,0.2,3.8,0.3,6.5,0.3c3.1,0,5.8-0.2,8.3-0.6c2.5-0.4,5.8-0.6,10.1-0.6
		c2.3,0,4.3,0.3,5.9,0.9c1.6,0.6,2.4,1.5,2.4,2.9c0,1.5-0.8,2.7-2.3,3.4c-1.5,0.8-3.7,1.5-6.6,2.3c-5.9,1.3-10.1,3.2-12.5,5.6
		c-2.4,2.4-4.8,5.6-7.3,9.6c-1.1,2.5-2.7,5.8-4.7,10.1c-2,4.2-4.1,8.7-6.2,13.5c-2.1,4.8-4,9.3-5.7,13.5c-0.8,1.7-1.2,3.8-1.4,6.2
		c-0.2,2.4,0,4.4,0.6,5.9l26.7,67.2c0.6,1.3,1.1,1.8,1.7,1.3c0.6-0.5,1.1-1.3,1.7-2.4c5.6-14,11.5-30.4,17.9-49.4
		c6.4-19,12.8-38.2,19.1-57.7c1-2.9,1.6-5.2,1.9-7c0.3-1.8,0.4-3.4,0.4-4.7c-0.2-2.7-0.9-5-2.2-7c-1.2-2-3.4-3.3-6.5-3.9
		c-1.9-0.6-3.9-1.3-6-2.3c-2.1-1-3.2-2.2-3.2-3.7c0-1.1,0.8-2,2.4-2.6c1.6-0.6,3.6-0.9,5.9-0.9c4.6,0,8.3,0.1,11.2,0.3
		c2.9,0.2,5.9,0.3,9.2,0.3c4.2-0.2,8.3-0.4,12.3-0.7s8.1-0.4,12.3-0.4c2.5,0,4.6,0.2,6.3,0.7c1.7,0.5,2.6,1.5,2.6,3
		c0,1.3-0.9,2.4-2.6,3.3s-3.9,1.7-6.6,2.4c-4.4,1-8.1,2.7-11.2,5.3c-3.1,2.6-5.5,5.5-7.2,8.8c-1.7,3.3-3.3,6.3-4.6,9.2l-56.3,152.5
		c-0.4,1.1-1.1,2.5-2,4c-1,1.5-2,2.3-3.2,2.3c-1,0-2-0.5-3-1.6c-1.1-1.1-1.9-2.3-2.4-3.9c-4-9.2-7.8-17.8-11.2-26
		c-3.4-8.1-6.9-16.7-10.5-25.7c-3.5-9-7.8-19.1-12.8-30.4c-0.6-1.3-1.1-1.9-1.6-1.7c-0.5,0.2-1.1,1.1-1.9,2.9
		c-4.2,9.8-8.1,18.7-11.8,26.9c-3.6,8.1-7.2,16.4-10.8,24.8c-3.5,8.4-7.3,17.6-11.3,27.6c-0.8,1.9-1.7,3.7-2.7,5.5
		C724,309.7,722.8,310.5,721.4,310.5z"/>
</g>
<circle id="Circle" class="st1" cx="520.3" cy="210.7" r="13.1"/>
</svg>
