<?xml version="1.0" encoding="utf-8"?>
<!-- Generator: Adobe Illustrator 27.8.1, SVG Export Plug-In . SVG Version: 6.00 Build 0)  -->
<svg version="1.1" id="Crow" xmlns="http://www.w3.org/2000/svg" xmlns:xlink="http://www.w3.org/1999/xlink" x="0px" y="0px"
	 viewBox="0 0 790 790" style="enable-background:new 0 0 790 790;" xml:space="preserve">
<style type="text/css">
	.st0{fill:#FFFFFF;}
</style>
<g id="Crow_00000058588098137284242580000017693750702312808577_">
	<path class="st0" d="M784,331.3c5.7-25.7,2.6-50-0.3-73.5c-2.5-20.1-4.8-39-1.3-56.6c8.4-41.7-17.7-87.5-41.4-122.7
		c-26.4-39.3-55-44.9-92.5-48.5c-2-0.2-4.1-0.3-6.2-0.3c-25.2,0-46.2,14.4-57.5,22.1c-2.9,2-6,4.1-6.8,4.3c-1.4,0.3-4.7,0.3-8.9,0.4
		c-11.2,0.2-29.9,0.4-52.2,5.3c-21.7,4.7-39.1,16-38.8,25.1c0.1,3.5,2.6,7.9,13.7,9.5c23.3,3.3,43.8,9.7,60.4,14.9
		c3.3,1,6.3,2,9.2,2.8c17.9,5.4,34.4,12.7,40.1,43.3c3.9,21.2-31.8,45.6-63.4,67c-13.1,8.9-25.4,17.3-35.4,25.6
		c-34.7,28.8-100.9,87.1-122.1,107.6C360.5,376.9,191.5,495.1,146,517.7C99.6,540.8,54.3,577,43,600.1c-2.5,5.2-3.1,8.5-1.8,10.6
		c0.6,1,1.8,2.1,4.2,2.1c2.9,0,6.8-1.7,10.1-3.3c0,0.4,0.1,0.8,0.3,1.3c1,2.5,4.3,2.8,7,2.8c7.4,0,22.9-3.1,41.8-8.4
		c-6.8,5.1-20.2,13.9-32.5,21.9c-48.4,31.7-69.8,47-69.2,54.5c0.3,4.1,3,9,13.8,9c6.6,0,14.7-1.7,21.2-3.1c3.4-0.7,6.3-1.4,8.3-1.6
		c-0.7,1.6-2.6,4.3-4,6.2c-4.3,6.2-8.8,12.7-5.6,16.7c1,1.2,2.6,1.8,5,1.8c7.1,0,22.4-5.4,37.2-10.6c10.5-3.7,20.5-7.3,26.5-8.5
		c9.2-1.9,53.7-25.4,96.8-48.2c32.1-17,68.6-36.2,72.5-36.7c7.6,0,69.3-4.6,108.2-15.9c8.7-2.5,17.9-3.8,27.5-3.8
		c23.3,0,45.8,7.4,65.1,14.7c-0.1,4.8-0.2,10.7-0.4,17.9c-0.3,19.8-0.5,40.2-0.4,45.6c0.1,7.6,14.1,20.9,33.8,38.9
		c8.1,7.4,18.1,16.5,19.9,19.8c-3.3,2.1-8.4,2.2-14.7,2.2c-11,0.1-26,0.3-41.7,12.5c-9.1,7.1-15.1,17.2-16.5,22.1
		c-0.1,0.5-0.5,1.8,0.3,3c0.5,0.6,1.2,1,2,1c0.7,0,1.3-0.2,2-0.8l1.6-1.2c5.1-3.7,17-12.4,23.4-14.9c8.7-3.4,15-4.7,22-4.7
		c9.1,0,19.9,2.4,36.6,6.8c10.2,2.7,18.9,4,26.7,4c10.1,0,17.4-2.2,25.1-4.5c9-2.7,18.3-5.4,33.5-5.4c2.8,0,5.8,0.1,8.9,0.3
		c16.6,1.1,31.6,9.9,38.7,14.2c3.1,1.8,4,2.4,5,2.4l1.5-0.1l0.6-1.3c0.8-1.7-0.2-2.8-4.7-8c-7.7-8.8-14.8-14.2-21.7-17.6
		c4.2-0.8,8.1-2,12.2-3.2c9-2.7,18.3-5.4,33.5-5.4c2.8,0,5.8,0.1,8.9,0.3c16.6,1.1,31.6,9.9,38.7,14.2c3.1,1.8,4,2.4,5,2.4l1.5-0.1
		l0.6-1.3c0.8-1.7-0.2-2.8-4.7-8c-16.2-18.6-30.2-22-44.4-24.1c-5.5-0.8-9.7-2.7-10.2-4.6c-0.4-1.6,1.7-4.2,5.5-7
		c6.8-5,13.6-7.6,20.3-7.6c11.8,0,19.2,7.9,20,10.9c0.4,1.4,1.4,1.9,2.2,1.9c0.8,0,1.9-0.5,2.2-1.9c0.7-2.7-0.1-14.3-9.8-19.6
		c-4.8-2.6-12.3-4.1-21-4.1c-20.6,0-43,7.4-61.4,20c-3.7-0.8-7.9-1.2-12.5-1.2c-1.3,0-2.5,0-3.8,0.1c-15.8-12.8-43.5-42.8-45.1-52.9
		c-1.1-6.7-1.7-27.9-1.7-48.4c0-0.1,0-0.2,0-0.2c13.1-6.6,26.3-14.4,41.7-23.7C711.7,524.1,773.6,378.7,784,331.3z M548.7,616.2
		c-0.2,14-0.2,26.2-0.2,30.2c0.1,7.6,14.1,20.9,33.8,38.9c7.7,7,17,15.5,19.6,19.2c-1.7,0.8-3.4,1.5-5.1,2.4
		c-2.6,0.4-5.7,0.4-9.2,0.5c-7.1,0.1-15.9,0.2-25.5,3.6c-16-14.1-39.4-40.2-40.9-49.6c-0.8-5.1-1.1-18.5-1.3-33.6
		C526.2,625.5,535.7,622,548.7,616.2z"/>
</g>
</svg>
